<svg xmlns="http://www.w3.org/2000/svg" viewBox="0 0 480 560" fill="none">
  <defs>
    <linearGradient id="bg5" x1="52" y1="30" x2="420" y2="530" gradientUnits="userSpaceOnUse">
      <stop stop-color="#F1F0F6"/>
      <stop offset="1" stop-color="#E6ECF7"/>
    </linearGradient>
  </defs>
  <rect width="480" height="560" rx="40" fill="url(#bg5)"/>
  <circle cx="358" cy="108" r="82" fill="#DCE4F7"/>
  <ellipse cx="240" cy="240" rx="102" ry="126" fill="#C18960"/>
  <path d="M138 228C146 131 192 92 245 92C311 92 352 138 344 235C317 208 285 197 242 197C198 197 169 206 138 228Z" fill="#171717"/>
  <ellipse cx="205" cy="244" rx="10" ry="6" fill="#2A180F"/>
  <ellipse cx="277" cy="244" rx="10" ry="6" fill="#2A180F"/>
  <path d="M219 286C231 294 248 294 260 286" stroke="#855036" stroke-width="5" stroke-linecap="round"/>
  <path d="M122 514C135 401 189 348 241 348C294 348 346 401 359 514" fill="#24344F"/>
  <path d="M178 358L241 412L303 358" fill="#F4F4F8"/>
</svg>
