<svg xmlns="http://www.w3.org/2000/svg" viewBox="0 0 480 560" fill="none">
  <defs>
    <linearGradient id="bg4" x1="52" y1="30" x2="420" y2="530" gradientUnits="userSpaceOnUse">
      <stop stop-color="#F4EEE4"/>
      <stop offset="1" stop-color="#F2E9DB"/>
    </linearGradient>
  </defs>
  <rect width="480" height="560" rx="40" fill="url(#bg4)"/>
  <circle cx="118" cy="102" r="80" fill="#F4DCC7"/>
  <ellipse cx="240" cy="238" rx="100" ry="126" fill="#C78D67"/>
  <path d="M134 232C140 132 190 88 242 88C311 88 357 139 347 244C319 212 286 194 240 194C197 194 162 206 134 232Z" fill="#27160F"/>
  <path d="M130 237C149 176 182 143 240 143C299 143 331 175 352 237C312 208 282 197 240 197C202 197 168 205 130 237Z" fill="#311A11"/>
  <ellipse cx="203" cy="243" rx="10" ry="6" fill="#2B180F"/>
  <ellipse cx="276" cy="243" rx="10" ry="6" fill="#2B180F"/>
  <path d="M218 287C230 298 251 298 263 287" stroke="#8A4F34" stroke-width="5" stroke-linecap="round"/>
  <path d="M122 514C136 405 188 351 240 351C293 351 344 405 358 514" fill="#9B5A37"/>
  <path d="M178 359L240 414L302 359" fill="#F7F2EB"/>
</svg>
