<svg xmlns="http://www.w3.org/2000/svg" viewBox="0 0 480 560" fill="none">
  <defs>
    <linearGradient id="bg6" x1="52" y1="30" x2="420" y2="530" gradientUnits="userSpaceOnUse">
      <stop stop-color="#F8EEE8"/>
      <stop offset="1" stop-color="#F4E8EF"/>
    </linearGradient>
  </defs>
  <rect width="480" height="560" rx="40" fill="url(#bg6)"/>
  <circle cx="114" cy="104" r="82" fill="#F3DCCF"/>
  <ellipse cx="240" cy="238" rx="100" ry="126" fill="#CA946C"/>
  <path d="M134 232C139 130 191 86 243 86C313 86 358 140 348 246C320 212 287 194 241 194C196 194 164 206 134 232Z" fill="#201217"/>
  <path d="M128 241C147 177 182 144 240 144C298 144 331 177 352 241C313 210 282 198 240 198C201 198 167 207 128 241Z" fill="#27161C"/>
  <ellipse cx="204" cy="243" rx="10" ry="6" fill="#291812"/>
  <ellipse cx="276" cy="243" rx="10" ry="6" fill="#291812"/>
  <path d="M218 287C230 299 252 299 264 287" stroke="#8C5238" stroke-width="5" stroke-linecap="round"/>
  <path d="M122 514C136 404 188 351 240 351C294 351 346 404 360 514" fill="#6C3554"/>
  <path d="M179 359L240 414L302 359" fill="#F8F3F4"/>
</svg>
