<svg xmlns="http://www.w3.org/2000/svg" viewBox="0 0 480 560" fill="none">
  <defs>
    <linearGradient id="bg1" x1="40" y1="30" x2="420" y2="520" gradientUnits="userSpaceOnUse">
      <stop stop-color="#F4EFE7"/>
      <stop offset="1" stop-color="#E7EDF5"/>
    </linearGradient>
  </defs>
  <rect width="480" height="560" rx="40" fill="url(#bg1)"/>
  <circle cx="350" cy="110" r="90" fill="#D7E4F6"/>
  <ellipse cx="240" cy="240" rx="104" ry="128" fill="#B97F5A"/>
  <path d="M140 226C146 132 197 90 249 90C316 90 356 139 344 234C322 210 286 197 239 197C194 197 165 208 140 226Z" fill="#1A1A1A"/>
  <ellipse cx="202" cy="243" rx="10" ry="6" fill="#2B1A12"/>
  <ellipse cx="276" cy="243" rx="10" ry="6" fill="#2B1A12"/>
  <path d="M221 286C232 293 247 293 258 286" stroke="#8A4E33" stroke-width="5" stroke-linecap="round"/>
  <path d="M120 514C132 400 187 347 240 347C294 347 349 400 360 514" fill="#223A5A"/>
  <path d="M176 356L239 410L302 356" fill="#F4F0EA"/>
</svg>
